<svg t="1725947193925" class="icon" viewBox="0 0 1024 1024" version="1.1" xmlns="http://www.w3.org/2000/svg" p-id="1416" width="20" height="20">
  <path d="M688.5376 770.816H359.8848a30.72 30.72 0 0 1 0-61.44h328.6528a30.72 30.72 0 0 1 0 61.44z" fill="#00A0E9" p-id="1417"></path>
  <path d="M638.2592 648.192a29.952 29.952 0 0 1-14.2848-3.5328l-102.0416-53.6064L419.84 644.6592a30.72 30.72 0 0 1-44.5952-32.3584l19.6096-113.6128L312.32 418.2528a30.72 30.72 0 0 1 16.9984-52.3776l114.0736-16.5888L494.3872 245.76a30.72 30.72 0 0 1 55.0912 0l51.2 103.3728 114.0736 16.5888a30.72 30.72 0 0 1 17.0496 52.3776L649.0624 498.688l19.456 113.6128a30.72 30.72 0 0 1-30.2592 35.84z m-116.3264-122.5728a30.72 30.72 0 0 1 14.2848 3.5328l61.44 32.2048-11.6736-68.1984a30.72 30.72 0 0 1 8.6016-27.2384l49.5104-48.2816-68.4032-9.9328a30.72 30.72 0 0 1-23.1424-16.7936l-30.72-62.0032L491.52 390.9632a30.72 30.72 0 0 1-23.0912 16.7936l-68.6592 9.9328L449.28 465.92a30.72 30.72 0 0 1 8.8576 27.1872l-11.7248 68.1984 61.44-32.2048a30.72 30.72 0 0 1 14.08-3.4816z" fill="#F39800" p-id="1418"></path>
  <path d="M744.704 942.08H296.96a209.2544 209.2544 0 0 1-208.9984-209.0496V280.6272A209.2032 209.2032 0 0 1 296.96 71.68h447.7952a209.2032 209.2032 0 0 1 208.9984 208.9984v452.3008A209.2544 209.2544 0 0 1 744.704 942.08zM296.96 133.12a147.712 147.712 0 0 0-147.6096 147.5072v452.3008A147.7632 147.7632 0 0 0 296.96 880.64h447.7952a147.7632 147.7632 0 0 0 147.5584-147.6096V280.6272A147.712 147.712 0 0 0 744.704 133.12z" fill="#00A0E9" p-id="1419"></path>
</svg>