<svg t="1725947176647" class="icon" viewBox="0 0 1024 1024" version="1.1" xmlns="http://www.w3.org/2000/svg" p-id="1270" width="20" height="20">
  <path d="M729.4 692.2c-4.2-10.1-10.3-19.6-18.3-27.9l-233.8-244C435.6 377.2 368 372.7 321 409.9 135.3 556.4 58.3 743.9 92.1 967.4c2.4 15.5 15.7 26.9 31.3 27 183.8 0 432.5 1.7 435 1.7h0.2c8.4 0 16.5-3.3 22.4-9.3 5.9-5.9 9.3-14 9.3-22.4V794.1c17.5 14.6 40.3 22.1 63 20.5 3.8-0.3 7.6-0.9 11.3-1.6 9.5 7.8 22.6 9.5 33.7 4.2 11.1-5.2 18.2-16.4 18.2-28.7 0-2.9 0.4-5.7 1-8.4 4.4-5.7 8.1-11.8 10.9-18.1m-98.2-17.3l-50.1-46c-9.3-8.5-22.7-10.7-34.2-5.6-11.5 5.1-18.9 16.5-18.9 29v210.4c-68.7-0.5-235.7-1.4-375.8-1.5-20.9-189.7 47.7-344.1 209-471.3 21.6-17.1 52.4-15 71.5 4.5l233.8 244.1c5.6 5.8 8.2 13.9 6.8 21.9-3.6 5-6.7 10.2-9.4 15.8-3.9 3-8.7 5-13.8 5.3-7.1 0.5-13.7-1.8-18.9-6.6z m250.2-575.4c-12.2-43.7-57.6-69.4-101.3-57.2l-4.2 1.2c-19-20.7-43-46.6-53.4-57.4-31.1-32-69.7-29.8-96-25.4-28.6 4.7-106.9 25.5-142.2 40.1-50.2 20.8-57.3 56.9-64.8 95.1-3.6 18.3-6.3 36-8.2 50.1-35.7 16.8-55.1 57.3-44.2 96.5 3.4 12.2 11.5 22.6 22.5 28.8 7.3 4.1 15.3 6.2 23.4 6.2 4.3 0 8.6-0.6 12.8-1.8l50.4-14c14.6 74.6 80.4 131.1 159.2 131.1 89.5 0 162.3-72.8 162.3-162.3 0-19.2-3.5-37.8-9.9-55.5l60.3-16.8c12.3-3.4 22.5-11.4 28.8-22.5 6.4-10.9 7.9-24 4.5-36.2z m-147 131c0 54.6-44.4 98.9-98.9 98.9-49.7 0-91-36.9-97.9-84.7L674.9 276l50.6-14.1c5.2 12.1 7.9 25.1 7.9 38.4z m-302.6-22.2c2.4-2.8 5.6-5 9.4-6l7.5-2.1c12.5-3.5 21.6-14.2 23-27 1.4-12.8 4.6-38.4 9.9-64.9 7.7-38.8 10.2-41.9 26.9-48.9 30.1-12.5 103.1-32 128.3-36.2 6.7-1.1 12.2-1.6 16.8-1.6 12 0 18.1 3.4 23.3 8.7 12.6 12.9 46.3 49.7 65.3 70.4 8 8.8 20.4 12.3 31.9 9.1l22.9-6.4c3.9-1 7.7-0.9 11.2 0.3L430.8 278.1z m0 0" fill="#040000" p-id="1271"></path>
  <path d="M928.3 598.7c-48.9-48.9-127.9-48.9-176.8 0l-17.7 17.7-17.7-17.7v0.1c-31.4-32.1-77.8-44.9-121.2-33.4-43.5 11.5-77.4 45.4-89 88.9-11.5 43.5 1.2 89.8 33.3 121.2L733.7 970l194.5-194.3c49-49 49-128.2 0.1-177z" fill="#D31D3F" p-id="1272"></path>
</svg>