<svg t="1725947096011" class="icon" viewBox="0 0 1024 1024" version="1.1" xmlns="http://www.w3.org/2000/svg" p-id="1745" width="20" height="20">
  <path d="M763.95312519 93.64062527h-503.90625038c-77.34375027 0-140.62500027 63.28125-140.62499944 140.62499946v555.46875054c0 77.34375027 63.28125 140.62500027 140.62499944 140.62499946h503.90625038c77.34375027 0 140.62500027-63.28125 140.62499944-140.62499946V234.26562473c0-77.34375027-63.28125-140.62500027-140.62499944-140.62499946z m46.87500008 696.09375c0 25.78125009-21.09375 46.87500009-46.87500008 46.8750001h-503.90625038c-25.78125009 0-46.87500009-21.09375-46.87500008-46.8750001V234.26562473c0-25.78125009 21.09375-46.87500009 46.87500008-46.8750001h503.90625038c25.78125009 0 46.87500009 21.09375 46.87500008 46.8750001v555.46875054z" p-id="1746"></path>
  <path d="M707.70312491 275.28124991H316.29687509c-19.92187519 0-35.15625027 15.23437509-35.15625028 35.15625028v48.0468749c0 18.75000037 15.23437509 35.15625027 35.15625028 35.15625028h392.57812464c19.92187519 0 35.15625027-16.40624991 35.15625027-35.15625028v-48.0468749c-1.17187482-19.92187519-16.40624991-35.15625027-36.32812509-35.15625028zM363.17187519 456.92187537h-46.8750001c-19.92187519 0-35.15625027 16.40624991-35.15625028 35.15624945v46.87500009c0 19.92187519 16.40624991 35.15625027 35.15625028 35.15625028h46.87500009c19.92187519 0 35.15625027-16.40624991 35.15624945-35.15625028v-46.8750001c1.17187482-19.92187519-15.23437509-35.15625027-35.15624945-35.15624944zM535.43749963 456.92187537h-46.87499926c-19.92187519 0-35.15625027 16.40624991-35.15625028 35.15624945v46.87500009c0 19.92187519 16.40624991 35.15625027 35.15625028 35.15625028h46.87499926c19.92187519 0 35.15625027-16.40624991 35.15625028-35.15625028v-46.8750001c1.17187482-19.92187519-15.23437509-35.15625027-35.15625028-35.15624944zM707.70312491 456.92187537h-46.8750001c-19.92187519 0-35.15625027 16.40624991-35.15624944 35.15624945v46.87500009c0 19.92187519 16.40624991 35.15625027 35.15624944 35.15625028h46.8750001c19.92187519 0 35.15625027-16.40624991 35.15625028-35.15625028v-46.8750001c0-19.92187519-15.23437509-35.15625027-35.15625028-35.15624944zM363.17187519 646.76562537h-46.8750001c-19.92187519 0-35.15625027 16.40624991-35.15625028 35.15624945v46.87500009c0 19.92187519 16.40624991 35.15625027 35.15625028 35.15625028h46.87500009c19.92187519 0 35.15625027-16.40624991 35.15624945-35.15625028v-46.8750001c1.17187482-19.92187519-15.23437509-35.15625027-35.15624945-35.15624944zM535.43749963 646.76562537h-46.87499926c-19.92187519 0-35.15625027 16.40624991-35.15625028 35.15624945v46.87500009c0 19.92187519 16.40624991 35.15625027 35.15625028 35.15625028h46.87499926c19.92187519 0 35.15625027-16.40624991 35.15625028-35.15625028v-46.8750001c1.17187482-19.92187519-15.23437509-35.15625027-35.15625028-35.15624944zM707.70312491 646.76562537h-46.8750001c-19.92187519 0-35.15625027 16.40624991-35.15624944 35.15624945v46.87500009c0 19.92187519 16.40624991 35.15625027 35.15624944 35.15625028h46.8750001c19.92187519 0 35.15625027-16.40624991 35.15625028-35.15625028v-46.8750001c0-19.92187519-15.23437509-35.15625027-35.15625028-35.15624944z" p-id="1747"></path>
</svg>