<svg t="1725947110930" class="icon" viewBox="0 0 1357 1024" version="1.1" xmlns="http://www.w3.org/2000/svg" p-id="1891" width="20" height="20">
  <path d="M63.99999999 63.99999999m64.024196 0l853.655944 0q64.024196 0 64.024196 64.024196l0 576.217762q0 64.024196-64.024196 64.024196l-853.655944 0q-64.024196 0-64.024196-64.024196l0-576.217762q0-64.024196 64.024196-64.024196Z" fill="#9AB3FF" p-id="1892"></path>
  <path d="M128.02419599 106.68279699a21.341399 21.341399 0 0 0-21.341399 21.341399v576.217762a21.341399 21.341399 0 0 0 21.341399 21.341399h853.655944a21.341399 21.341399 0 0 0 21.341399-21.341399v-576.217762a21.341399 21.341399 0 0 0-21.341399-21.341399h-853.655944m0-42.682797h853.655944a64.024196 64.024196 0 0 1 64.024196 64.024196v576.217762a64.024196 64.024196 0 0 1-64.024196 64.024196h-853.655944a64.024196 64.024196 0 0 1-64.024196-64.024196v-576.217762a64.024196 64.024196 0 0 1 64.024196-64.024196z" fill="#262B3A" p-id="1893"></path>
  <path d="M106.68279699 938.99734299m21.341399 0l853.655944 0q21.341399 0 21.341399 21.341398l0 0q0 21.341399-21.341399 21.341399l-853.655944 0q-21.341399 0-21.341399-21.341399l0 0q0-21.341399 21.341399-21.341398Z" fill="#192547" p-id="1894"></path>
  <path d="M320.09678299 960.33874099V736.78759099h42.682797v223.55115z" fill="#192547" p-id="1895"></path>
  <path d="M1169.78322699 256.09392899m0 64.024196l0 597.559161q0 64.024196-64.024196 64.024195l-405.486573 0q-64.024196 0-64.024196-64.024195l0-597.559161q0-64.024196 64.024196-64.024196l405.486573 0q64.024196 0 64.024196 64.024196Z" fill="#396AFC" p-id="1896"></path>
  <path d="M1127.10042999 320.09678299a21.341399 21.341399 0 0 0-21.341399-21.341398h-405.486573a21.341399 21.341399 0 0 0-21.341399 21.341398v597.559161a21.341399 21.341399 0 0 0 21.341399 21.341399h405.486573a21.341399 21.341399 0 0 0 21.341399-21.341399v-597.559161m42.682797 0v597.559161a64.024196 64.024196 0 0 1-64.024196 64.024196h-405.486573a64.024196 64.024196 0 0 1-64.024196-64.024196v-597.559161a64.024196 64.024196 0 0 1 64.024196-64.024196h405.486573a64.024196 64.024196 0 0 1 64.024196 64.024196z" fill="#262B3A" p-id="1897"></path>
  <path d="M853.61040699 874.97314699m21.341399 0l42.682797 0q21.341399 0 21.341398 21.341399l0 0q0 21.341399-21.341398 21.341398l-42.682797 0q-21.341399 0-21.341399-21.341398l0 0q0-21.341399 21.341399-21.341399Z" fill="#282D3D" p-id="1898"></path>
  <path d="M1280.43837899 597.53496499m0 64.024196l0 256.096783q0 64.024196-64.024196 64.024196l-149.38979 0q-64.024196 0-64.024196-64.024196l0-256.096783q0-64.024196 64.024196-64.024196l149.38979 0q64.024196 0 64.024196 64.024196Z" fill="#FFFFFF" p-id="1899"></path>
  <path d="M1237.75558199 661.55916099a21.341399 21.341399 0 0 0-21.341399-21.341399h-149.38979a21.341399 21.341399 0 0 0-21.341399 21.341399v256.096783a21.341399 21.341399 0 0 0 21.341399 21.341399h149.38979a21.341399 21.341399 0 0 0 21.341399-21.341399v-256.096783m42.682797 0v256.096783a64.024196 64.024196 0 0 1-64.024196 64.024196h-149.38979a64.024196 64.024196 0 0 1-64.024196-64.024196v-256.096783a64.024196 64.024196 0 0 1 64.024196-64.024196h149.38979a64.024196 64.024196 0 0 1 64.024196 64.024196z" fill="#262B3A" p-id="1900"></path>
  <path d="M1141.71928799 885.64384599m-32.012098 0a32.012098 32.012098 0 1 0 64.024196 0 32.012098 32.012098 0 1 0-64.024196 0Z" fill="#282D3D" p-id="1901"></path>
</svg>