<svg t="1725947047867" class="icon" viewBox="0 0 1024 1024" version="1.1" xmlns="http://www.w3.org/2000/svg" p-id="1448" width="20" height="20">
  <path d="M779.05454521 311.75a9.16363653 9.16363653 0 0 1-9.61363652 0.65454521L728.81818174 291.17272695l-40.70454522 21.02727305a9.16363653 9.16363653 0 0 1-9.61363652-0.69545479 8.91818174 8.91818174 0 0 1-3.62045479-8.83636347l7.875-44.75454522-32.82954521-31.78636347a8.89772695 8.89772695 0 0 1-2.27045479-9.26590958 9.04090869 9.04090869 0 0 1 7.36363653-6.11590868l45.49090957-6.42272784 20.45454522-40.70454521a9.08181826 9.08181826 0 0 1 8.16136347-4.99090869c3.51818174 0 6.64772695 1.94318174 8.18181826 5.05227216l20.25 40.78636348 45.45 6.62727305c3.47727305 0.51136347 6.27954521 2.86363653 7.36363653 6.15681826a8.89772695 8.89772695 0 0 1-2.35227305 9.24545479L775.04545479 258.15909131l7.65 44.7954539a8.91818174 8.91818174 0 0 1-3.64090958 8.79545479m-315.34772695 123.13636347H167.525v409.66363653h100.77954521c5.03181826 0 9.12272695 4.05 9.12272784 9.02045479 0 4.99090869-4.09090869 9.02045479-9.12272784 9.0204539H158.40227305a9.08181826 9.08181826 0 0 1-9.12272784-9V425.825c0-4.99090869 4.09090869-9.02045479 9.12272784-9.02045479h305.30454521c5.03181826 0 9.12272695 4.02954521 9.12272695 9 0 4.99090869-4.09090869 9.04090869-9.12272695 9.04090958M227.21136347 216.84090869a9.04090869 9.04090869 0 0 1 7.36363653-6.11590869l45.49090869-6.42272695 20.4545461-40.7045461a9.08181826 9.08181826 0 0 1 8.16136347-4.99090869c3.51818174 0 6.64772695 1.94318174 8.18181826 5.05227305l20.25 40.78636348 45.45 6.62727216c3.45681826 0.51136347 6.27954521 2.86363653 7.36363653 6.15681826a8.89772695 8.89772695 0 0 1-2.35227305 9.24545479L354.60227305 258.15909131l7.65 44.7954539a8.91818174 8.91818174 0 0 1-3.64090958 8.79545479 9.16363653 9.16363653 0 0 1-9.61363652 0.675l-40.62272695-21.23181826-40.70454521 21.02727305a9.16363653 9.16363653 0 0 1-9.61363653-0.69545479 8.91818174 8.91818174 0 0 1-3.62045479-8.83636348l7.875-44.75454521-32.82954521-31.78636436a8.89772695 8.89772695 0 0 1-2.27045479-9.26590869m172.88181827-43.52727305a9.04090869 9.04090869 0 0 1 7.36363652-6.13636347l71.30454521-10.06363653 32.03181827-63.77727216a9.08181826 9.08181826 0 0 1 8.18181826-4.99090958c3.51818174 0 6.64772695 1.94318174 8.18181826 5.03181827l31.70454521 63.94090957 71.26363653 10.41136348c3.45681826 0.49090869 6.27954521 2.86363653 7.34318174 6.13636347a8.89772695 8.89772695 0 0 1-2.33181827 9.26590869l-51.68863652 49.56136436 12.00681826 70.2a8.91818174 8.91818174 0 0 1-3.66136347 8.83636348 9.16363653 9.16363653 0 0 1-9.61363653 0.65454521l-63.65454521-33.27954521-63.81818174 32.97272695a9.16363653 9.16363653 0 0 1-9.61363652-0.71590869 8.91818174 8.91818174 0 0 1-3.62045479-8.83636436l12.3545461-70.13863564-51.44318174-49.82727305a8.89772695 8.89772695 0 0 1-2.29090957-9.24545479m282.74318174 671.19545479h180.20454521v-54.81818174c0-4.99090869 4.09090869-9.04090869 9.14318262-9.04090957 5.03181826 0 9.12272695 4.05 9.12272695 9.02045479v63.85909131c0 4.99090869-4.09090869 9.02045479-9.12272695 9.0204539h-189.34772784a9.08181826 9.08181826 0 0 1-9.12272694-9c0-4.99090869 4.09090869-9.04090869 9.12272695-9.04090869m148.90909131-745.09772695A75.53863652 75.53863652 0 0 1 766.12727305 62h-77.87045479a75.88636347 75.88636347 0 0 1-63.83863652 37.43181826h-1.86136348A75.80454521 75.80454521 0 0 1 558.47272695 62h-77.85a76.56136348 76.56136348 0 0 1-65.7 37.43181826A76.70454521 76.70454521 0 0 1 349.26363653 62h-72.10227305a76.80681826 76.80681826 0 0 1-65.76136348 37.43181826c-27 0-52.15909131-14.52272695-65.61818174-37.43181826H117.02272695C109.22954521 62 102.90909131 68.23863653 102.90909131 75.95V962h42.87272695a76.45909131 76.45909131 0 0 1 65.61818174-37.43181826c27 0 52.22045479 14.52272695 65.76136347 37.43181826h72.08181827a76.70454521 76.70454521 0 0 1 65.67954521-37.43181826c27.04090869 0 52.24090869 14.52272695 65.7 37.43181826h77.85a75.68181826 75.68181826 0 0 1 63.85909131-37.43181826h1.84090869A75.96818174 75.96818174 0 0 1 688.27727305 962h77.8704539a75.53863652 75.53863652 0 0 1 65.61818174-37.43181826c27.08181826 0 52.30227305 14.52272695 65.76136436 37.43181826H921.09090869V711.94318174c-5.21590869 18.81818174-19.16590869 32.625-39.6204539 39.06818173a1440.36818174 1440.36818174 0 0 0-314.71363653 142.01590958 63 63 0 0 1-33.09545478 9.45 67.41818174 67.41818174 0 0 1-44.79545479-17.46818174c-20.78181826-18.9-25.97727305-47.20909131-13.25454521-72.14318262 4.37727305-8.59090869 9.34772695-17.14090869 14.80909131-25.46590869a1761.03409131 1761.03409131 0 0 0-104.87045479 68.03181826c-21.08863652 14.80909131-44.14090869 16.05681826-63.26590869 3.43636348-24.075-15.91363653-36.32727305-50.05227305-29.14772783-81.20454522 6.87272695-29.76136348 18.32727305-54.98181826 38.25-84.06818173-14.11363652 8.38636347-27.49090869 16.38409131-48.96818174 30.76363652-33.58636348 22.45909131-66.74318174 8.22272695-83.35227305-14.52272784-18.49090869-25.34318174-20.04545479-64.02272695 12.72272784-88.93636347a1835.26363653 1835.26363653 0 0 1 142.44545478-97.97727305 1858.80681826 1858.80681826 0 0 1 404.69318174-187.77272695c26.79545479-8.71363652 52.15909131-1.575 67.78636348 19.10454521 17.38636348 22.99090869 17.63181826 56.12727305 0.55227216 80.5295461-24.46363652 35.03863653-51.075 63.75681826-86.11363564 92.9454539a1979.46818174 1979.46818174 0 0 1 57.27272695-20.14772695c31.56136348-10.63636347 63.32727305 8.93863652 77.23636348 32.74772695 14.25681826 24.46363652 10.32954521 50.72727305-10.28863653 68.52272784l-29.55681826 25.52727216 4.90909131-1.55454521c22.29545479-7.01590869 43.60909131-2.7 60.075 12.12954521 9.94090869 8.95909131 16.97727305 21.06818174 20.29090869 33.99545479V62h-23.58409043a76.64318174 76.64318174 0 0 1-65.76136347 37.43181826" fill="#626478" p-id="1449"></path>
  <path d="M424.41363652 181.00454521l43.99772696 38.82272784c2.27045479 1.98409131 3.29318174 4.86818174 2.76136347 7.6704539l-10.55454521 54.6545461 54.57272695-25.69090957a10.55454521 10.55454521 0 0 1 8.95909131 0l54.45 25.93636347-10.26818174-54.675a8.16136348 8.16136348 0 0 1 2.80227305-7.6704539l44.18181738-38.61818174-60.91363564-8.12045478a9.61363652 9.61363652 0 0 1-7.24090957-4.74545479l-27.12272695-49.80681826-27.38863653 49.68409131a9.61363652 9.61363652 0 0 1-7.26136347 4.725l-60.95454522 7.83409042zM253.25 227.06818174l23.66590869 24.38181826c2.20909131 2.27045479 3.21136347 5.52272695 2.6795461 8.73409131l-5.68636348 34.30227216 29.39318174-16.11818173a9.04090869 9.04090869 0 0 1 8.73409043 0l29.29090957 16.30227305-5.52272784-34.36363653a10.16590869 10.16590869 0 0 1 2.72045479-8.69318174l23.80909131-24.25909131-32.80909131-5.11363652a9.40909131 9.40909131 0 0 1-7.03636347-5.37954522l-14.60454522-31.29545478-14.74772783 31.21363652a9.40909131 9.40909131 0 0 1-7.07727217 5.3795461l-32.8295461 4.90909043zM759.62272695 295.01818174l-5.52272695-34.36363653a10.16590869 10.16590869 0 0 1 2.72045479-8.71363652l23.80909042-24.23863564-32.80909042-5.11363653a9.40909131 9.40909131 0 0 1-7.05681827-5.4l-14.58409131-31.275-14.74772695 31.21363653a9.40909131 9.40909131 0 0 1-7.07727305 5.35909042l-32.82954521 4.92954522 23.68636348 24.38181826c2.20909131 2.25 3.21136347 5.52272695 2.67954521 8.73409131l-5.68636348 34.30227305 29.39318174-16.11818262a9.04090869 9.04090869 0 0 1 8.73409131 0l29.29090869 16.30227305zM555.48636348 882.55454521c-20.45454521 12.47727305-42.81136347 5.99318174-55.90227217-5.93181826-11.61818174-10.63636347-20.16818174-29.55681826-9.30681826-50.91136348 10.18636347-20.04545479 23.42045479-39.29318174 40.41818174-58.82727216a9 9 0 0 0 0.14318174-11.6795461 9.12272695 9.12272695 0 0 0-11.55681827-2.08636347 1809.675 1809.675 0 0 0-145.77954521 92.37272695c-14.99318174 10.575-29.67954521 11.65909131-42.5045461 3.15-17.71363652-11.74090869-26.93863653-38.55681826-21.47727216-62.38636348 8.71363652-37.82045479 24.75-67.00909131 63.63409042-115.69090869a8.95909131 8.95909131 0 0 0-0.40909042-11.72045478 9.12272695 9.12272695 0 0 0-11.7-1.49318174c-17.01818174 11.00454521-28.84090869 18.08181826-40.29545479 24.95454521-14.37954521 8.59090869-27.96136347 16.73181826-49.90909131 31.5-25.22045479 16.93636348-47.14772695 5.11363652-58.25454521-10.18636347-12.90681826-17.775-15.58636348-45.45 9.04090957-64.24772695a1814.31818174 1814.31818174 0 0 1 140.82954521-97.30227305 1834.60909131 1834.60909131 0 0 1 400.19318174-186.48409043c19.26818174-6.3 36.55227305-1.63636348 47.41363653 12.80454521 12.76363653 16.93636348 12.825 41.46136347 0.16363652 59.64545479-33.34090869 47.94545479-72.24545479 85.29545479-134.22272784 128.86363564a9 9 0 0 0-2.7 11.80227305c2.27045479 4.05 7.22045479 5.72727305 11.51590958 3.92727305a1633.25454521 1633.25454521 0 0 1 117.4704539-44.18181826c22.29545479-7.52727305 45.20454521 7.15909131 55.45227305 24.79090868 4.70454521 8.1 13.47954521 28.75909131-6.46363653 46.06363653l-64.22727216 55.73863652a9 9 0 0 0-1.88181826 11.39318174 9.14318174 9.14318174 0 0 0 10.92272695 3.94772695 1501.36363653 1501.36363653 0 0 1 48.08863652-16.15909042c15.79090869-4.99090869 30.76363653-2.04545479 42.19772695 8.28409042 12.88636347 11.65909131 19.125 30.51818174 15.5045461 46.90227305-2.14772695 9.81818174-8.79545479 22.74545479-28.08409131 28.84090869a1453.90909131 1453.90909131 0 0 0-318.31363652 144.30681826m343.16590957-233.42727216c-16.44545479-14.87045479-37.73863652-19.18636348-59.99318174-12.15l-4.90909131 1.55454521 29.51590869-25.60909131c20.59772695-17.85681826 24.525-44.18181826 10.26818262-68.72727216-13.86818174-23.89090869-45.61363652-43.50681826-77.11363652-32.87045479-21.68181826 7.34318174-39.92727305 13.78636347-57.19090958 20.22954521 34.97727305-29.29090869 61.54772695-58.09090869 85.99090958-93.23181826 17.03863653-24.48409131 16.81363653-57.70227305-0.55227305-80.7954539-15.62727305-20.72045479-40.92954521-27.9-67.70454521-19.14545479a1852.77272695 1852.77272695 0 0 0-404.18181827 188.36590869 1832.72727305 1832.72727305 0 0 0-142.26136347 98.26363652c-32.72727305 24.99545479-31.17272695 63.79772695-12.72272784 89.18181827 16.58863652 22.82727305 49.70454521 37.125 83.25 14.58409131A974.80227305 974.80227305 0 0 1 329.95454521 697.93181826c-19.88181826 29.18863653-31.33636348 54.47045479-38.18863652 84.33409043-7.17954521 31.25454521 5.05227305 65.51590869 29.10681826 81.45 19.08409131 12.68181826 42.13636347 11.41363653 63.18409131-3.43636348a1758.12954521 1758.12954521 0 0 1 104.72727305-68.25681826c-5.44090869 8.38636347-10.43181826 16.97727305-14.78863652 25.56818174-12.70227305 24.99545479-7.50681826 53.38636348 13.25454521 72.34772783a67.17272695 67.17272695 0 0 0 44.73409131 17.52954522c11.61818174 0 22.74545479-3.19090869 33.05454522-9.47045479a1435.52045479 1435.52045479 0 0 1 314.30454521-142.46590869c20.43409131-6.46363653 34.36363653-20.31136347 39.57954521-39.17045479l0.77727305-3.06818173a65.14772695 65.14772695 0 0 0-0.77727305-30.04772695 69.50454521 69.50454521 0 0 0-20.2704539-34.09772784" fill="#626478" p-id="1450"></path>
</svg>