<?xml version="1.0" encoding="UTF-8"?>
<svg data-v-2cb57da0="" version="1.0" xmlns="http://www.w3.org/2000/svg" xmlns:xlink="http://www.w3.org/1999/xlink"
    width="100%" height="100%" viewBox="0 0 220 77" preserveAspectRatio="xMidYMid meet"
    color-interpolation-filters="sRGB" style="margin: auto;">
    <g data-v-2cb57da0="" fill="#ec7210" class="pmspacesvg">
        <!---->
        <g>
            <!---->
            <!---->
            <!---->
            <!---->
            <g mask="url(#7e831b46-74c7-47cb-afcc-205884f98ea3)">
                <g>
                    <rect data-gra="graph-name-bg" stroke-width="2" class="i-icon-bg" x="0" y="0"
                        width="219.0432586669922" height="76.39999771118164"></rect>
                    <!---->
                    <!---->
                    <rect data-gra="graph-name-border" stroke="black" stroke-width="2" x="5" y="5" fill-opacity="0"
                        width="209.0432586669922" height="66.39999389648438"></rect>
                </g>
                <g transform="translate(15,15)">
                    <!---->
                    <g data-gra="path-name" fill-rule="" class="tp-name" fill="#fff" opacity="1"
                        transform="matrix(1,0,0,1,0,0)">
                        <g transform="scale(1)">
                            <g>
                                <path
                                    d="M42.48-28.3L42.48-24.75Q42.48-21.82 39.55-21.82L39.55-21.82 28.48-21.82Q31.27-16.88 35.55-12.51L35.55-12.51Q39.82-8.19 42.12-7.06L42.12-7.06Q44.64-5.58 42.52-3.51L42.52-3.51 41.98-2.88 41.49-2.25Q39.73 0.14 37.39-1.57L37.39-1.57Q31.99-4.91 26.01-14.45L26.01-14.45 26.01 1.35Q26.01 4.27 22.5 4.27 18.99 4.27 18.99 1.35L18.99 1.35 18.99-14.13Q13.14-4.68 7.6-1.35L7.6-1.35Q5.26 0.36 2.79-2.43L2.79-2.43Q0.36-5.26 2.88-6.75L2.88-6.75Q5.22-7.88 9.36-12.29L9.36-12.29Q13.54-16.7 16.25-21.82L16.25-21.82 5.49-21.82Q2.56-21.82 2.56-24.75L2.56-24.75 2.56-28.3 18.99-28.3 18.99-38.48 26.01-38.48 26.01-28.3 42.48-28.3ZM59.45-29.65L59.45-29.65Q58.63-29.61 58.63-28.75L58.63-28.75 58.63-24.84Q58.63-17.64 57.33-10.26L57.33-10.26Q55.66-1.26 52.83 1.89L52.83 1.89Q51.21 4.27 48.65 1.98L48.65 1.98 48.33 1.75Q45.85 0.14 47.52-2.29L47.52-2.29Q49.99-5 51.12-12.46L51.12-12.46Q52.06-18.36 52.06-24.84L52.06-24.84 52.06-31.68Q52.06-34.6 54.95-34.83L54.95-34.83Q69.3-35.91 80.1-38.34L80.1-38.34 83.3-35.14Q85.37-33.12 82.48-32.63L82.48-32.63Q73.53-30.82 59.45-29.65ZM67.45-5.67L67.45-5.67Q67.19-4.91 68-5.08L68-5.08 71.55-5.94Q71.41-6.34 69.25-12.69L69.25-12.69Q68.58-8.32 67.45-5.67ZM69.34-13.37L69.34-13.37 74.11-14.89Q78.66-3.28 79.2-1.08L79.2-1.08Q80.01 1.71 77.22 2.7L77.22 2.7Q74.43 3.73 73.66 0.9L73.66 0.9Q73.89 1.53 73.22-0.77L73.22-0.77Q63.54 1.8 64.62 1.3L64.62 1.3Q62.1 2.83 60.52 0.36L60.52 0.36 60.21-0.09 59.72-0.72Q57.87-2.97 59.89-5.08L59.89-5.08Q61.47-6.21 62.5-11.61L62.5-11.61Q63.31-15.84 63.31-20.56L63.31-20.56 63.31-28.3 69.75-28.3 69.75-20.25Q69.75-16.65 69.34-13.37ZM75.96-26.32L75.96-26.32Q75.83-29.25 78.88-29.43L78.88-29.43Q81.99-29.65 82.17-26.73L82.17-26.73Q82.71-13.18 85.86-6.48L85.86-6.48Q87.25-3.55 86.89-3.55L86.89-3.55Q89.23-1.71 87.16 0.4L87.16 0.4 86.72 0.9 86.22 1.57Q84.6 4 82.66 1.84L82.66 1.84Q81.45 0.81 79.56-4.54 77.67-9.9 76.95-15.34L76.95-15.34Q76.28-20.84 75.96-26.32ZM106.2 0.14L106.2 0.14Q103.32 0.63 100.39 0.54L100.39 0.54Q98.69 0.63 96.48-2.02L96.48-2.02Q94.28-4.72 94.28-9.49L94.28-9.49 94.28-19.35 93.73-19.35Q90.81-19.35 90.81-22.27L90.81-22.27 90.81-22.36Q90.81-25.29 93.73-25.52L93.73-25.52 94.77-25.61 95.67-32.4 102.28-32.4 102.28-25.61 108.31-25.61 108.31-22.27Q108.31-19.35 105.39-19.35L105.39-19.35 102.28-19.35 102.28-9.58Q102.28-5.63 105.53-5.63L105.53-5.63Q106.47-5.63 107.86-6.12L107.86-6.12 108.54-3.15Q109.13-0.32 106.2 0.14ZM133.2-3.04Q129.51 0.63 124.38 0.63 119.25 0.63 115.54-3.04 111.83-6.71 111.83-12.8 111.83-18.9 115.54-22.57 119.25-26.23 124.38-26.23 129.51-26.23 133.2-22.57 136.89-18.9 136.89-12.8 136.89-6.71 133.2-3.04ZM120.02-12.8Q120.02-5.85 124.36-5.85 128.7-5.85 128.7-12.8 128.7-19.75 124.36-19.75 120.02-19.75 120.02-12.8ZM161.87-3.04Q158.18 0.63 153.04 0.63 147.91 0.63 144.2-3.04 140.49-6.71 140.49-12.8 140.49-18.9 144.2-22.57 147.91-26.23 153.04-26.23 158.18-26.23 161.87-22.57 165.56-18.9 165.56-12.8 165.56-6.71 161.87-3.04ZM148.68-12.8Q148.68-5.85 153.02-5.85 157.37-5.85 157.37-12.8 157.37-19.75 153.02-19.75 148.68-19.75 148.68-12.8ZM178.96 0.4L177.88 0.63Q173.97 0.63 172.26-1.71L172.26-1.71Q170.59-4.05 170.59-8.32L170.59-8.32 170.59-35.95 178.6-35.95 178.6-8.05Q178.6-5.85 180-5.85L180-5.85Q180.45-5.85 180.9-5.94L180.9-5.94 181.39-2.92Q181.84-0.04 178.96 0.4L178.96 0.4Z"
                                    transform="translate(-1.5970909595489502, 38.47999954223633)"></path>
                            </g>
                            <!---->
                            <!---->
                            <!---->
                            <!---->
                            <!---->
                            <!---->
                            <!---->
                        </g>
                    </g>
                    <!---->
                </g>
            </g>

        </g>
    </g>
</svg>