<?xml version="1.0" encoding="UTF-8"?>
<svg data-v-2cb57da0="" version="1.0" xmlns="http://www.w3.org/2000/svg" xmlns:xlink="http://www.w3.org/1999/xlink"
    width="100%" height="100%" viewBox="0 0 220 77" preserveAspectRatio="xMidYMid meet"
    color-interpolation-filters="sRGB" style="margin: auto;">
    <g data-v-2cb57da0="" fill="#ec7210" class="pmspacesvg">
        <!---->
        <g>
            <!---->
            <!---->
            <!---->
            <!---->
            <g mask="url(#7e831b46-74c7-47cb-afcc-205884f98ea3)">
                <g>
                    <rect data-gra="graph-name-bg" stroke-width="2" class="i-icon-bg" x="0" y="0"
                        width="219.0432586669922" height="76.39999771118164"></rect>
                    <!---->
                    <!---->
                    <rect data-gra="graph-name-border" stroke="black" stroke-width="2" x="5" y="5" fill-opacity="0"
                        width="209.0432586669922" height="66.39999389648438"></rect>
                </g>
                <g transform="translate(15,15)">
                    <!---->
                    <g data-gra="path-name" fill-rule="" class="tp-name" fill="#fff" opacity="1"
                        transform="matrix(1,0,0,1,0,0)">
                        <g transform="scale(1)">
                            <g>
                                <path
                                    d="M6.33-29.36L19.51-29.36 19.51-33.93Q19.51-37.27 24.08-37.44L24.08-37.44Q28.65-37.27 28.83-33.93L28.83-33.93 28.83-29.53 41.84-29.53Q45.18-29.71 45-26.02L45-26.02 45-25.31Q45-20.74 42.01-21.09L42.01-21.09 31.11-21.09Q36.74-13.89 44.12-8.96L44.12-8.96Q47.11-6.5 44.3-2.64L44.3-2.64Q41.13 0.7 38.32-1.41L38.32-1.41Q33.4-5.1 28.83-10.37L28.83-10.37 28.83 2.29Q28.48 5.45 24.26 5.63L24.26 5.63Q19.51 5.63 19.69 2.11L19.69 2.11 19.69-10.37Q14.94-4.75 9.67-0.88L9.67-0.88Q6.5 1.05 3.52-2.64L3.52-2.64Q0.88-6.5 4.39-8.79L4.39-8.79Q11.95-14.41 16.88-20.74L16.88-20.74 6.33-20.74Q2.81-20.57 2.99-25.14L2.99-25.14Q2.81-29.36 6.33-29.36L6.33-29.36ZM83.67-28.3L83.67-28.3 83.67-24.43Q83.67-15.82 86.31-6.68L86.31-6.68Q86.48-5.63 87.36-3.69L87.36-3.69Q88.42-0.7 88.77 0.53L88.77 0.53Q88.42 4.04 84.38 4.39L84.38 4.39Q81.04 4.22 81.21 2.64L81.21 2.64Q81.21 2.46 81.21 2.29L81.21 2.29Q82.44 0.35 80.68-4.22L80.68-4.22Q78.57-8.79 78.05-9.32L78.05-9.32Q77.87-9.32 77.87-9.32L77.87-9.32Q76.82-9.49 76.82-11.95L76.82-11.95Q75.76-25.31 75.59-27.25L75.59-27.25Q73.65-26.72 71.89-26.72L71.89-26.72 71.89-9.32Q71.89-9.14 71.37-8.79L71.37-8.79Q68.73-7.21 70.66-3.87L70.66-3.87Q71.02-3.34 72.42-3.87L72.42-3.87Q71.54-5.1 71.54-6.15L71.54-6.15Q71.37-8.09 74.71-8.61L74.71-8.61Q76.64-9.32 77.7-7.03L77.7-7.03Q78.05-6.15 79.28-3.34L79.28-3.34Q79.28-2.81 79.45-2.46L79.45-2.46Q80.51 0 80.16 1.58L80.16 1.58Q79.45 3.34 77.52 3.52L77.52 3.52 60.64 3.52Q58.71 3.34 58.71 0.53L58.71 0.53 58.71-0.35Q58.54-3.69 60.82-3.69L60.82-3.69 63.81-3.69 63.81-24.79 63.81-25.84 61.17-25.84Q59.77-25.66 59.94-24.43L59.94-24.43 59.94-18.46Q59.77-15.64 59.59-12.83L59.59-12.83Q59.24-10.02 58.71-7.56L58.71-7.56Q57.3-2.11 55.37 2.46L55.37 2.46Q54.14 6.5 49.22 4.57L49.22 4.57Q46.76 2.99 47.64 0.35L47.64 0.35Q49.75-4.75 50.8-9.32L50.8-9.32Q52.03-14.41 52.03-20.57L52.03-20.57 52.03-30.23Q51.68-33.22 57.3-33.4L57.3-33.4Q69.26-33.93 80.33-35.68L80.33-35.68Q82.44-36.04 83.85-36.21L83.85-36.21Q86.48-36.21 87.01-31.46L87.01-31.46Q87.01-29.18 83.67-28.3ZM92.46-3.87L92.46-3.87 92.46-28.3Q92.46-33.05 97.03-33.05L97.03-33.05Q101.25-33.05 101.43-28.3L101.43-28.3 101.43-20.57 101.6-20.57Q103.54-23.91 108.11-24.08L108.11-24.08Q117.25-23.55 118.3-11.78L118.3-11.78Q117.77 0 107.75 0.18L107.75 0.18Q101.95 0 100.72-3.69L100.72-3.69Q100.55 0 96.68 0.18L96.68 0.18Q92.29 0.18 92.46-3.87ZM101.25-11.78L101.25-11.78Q101.25-6.15 105.12-6.15L105.12-6.15Q108.98-6.15 109.16-11.6L109.16-11.6Q108.98-16.7 104.94-16.88L104.94-16.88Q101.25-16.52 101.25-11.78ZM122.34-4.04L122.34-4.04 122.34-28.48Q122.34-32.7 126.91-33.05L126.91-33.05Q131.48-32.87 131.66-28.48L131.66-28.48 131.66-4.04Q131.48 0 126.91 0.18L126.91 0.18Q122.34 0 122.34-4.04ZM135.7-11.78L135.7-11.78Q136.05-23.55 148.89-24.08L148.89-24.08Q161.54-23.55 162.07-11.78L162.07-11.78Q161.72 0 148.89 0.18L148.89 0.18Q135.88 0 135.7-11.78ZM152.93-11.6L152.93-11.6Q152.75-17.75 148.89-17.93L148.89-17.93Q145.02-17.75 145.02-11.6L145.02-11.6Q145.02-5.45 148.89-5.63L148.89-5.63Q152.75-5.63 152.93-11.6ZM182.46-1.58L182.46-1.58 182.46-4.75Q180.88-1.58 175.96-1.58L175.96-1.58Q166.11-2.29 165.94-12.83L165.94-12.83Q166.46-23.38 176.13-24.08L176.13-24.08Q181.93-23.55 183.16-19.86L183.16-19.86 183.34-19.86Q183.34-23.91 187.38-24.08L187.38-24.08Q191.43-24.08 191.43-19.69L191.43-19.69 191.43-0.7Q191.43 8.96 178.24 8.96L178.24 8.96Q168.05 8.79 167.17 3.52L167.17 3.52Q167.34 0.35 170.51 0.18L170.51 0.18Q171.39 0.18 173.32 1.41L173.32 1.41Q175.78 2.99 177.54 2.99L177.54 2.99Q182.64 2.99 182.46-1.58ZM182.81-12.66L182.81-12.66Q182.64-17.4 178.95-17.58L178.95-17.58Q174.9-17.58 175.08-12.66L175.08-12.66Q174.9-7.56 178.95-7.73L178.95-7.73Q182.64-7.73 182.81-12.66Z"
                                    transform="translate(-2.3867316246032715, 37.439998626708984)"></path>
                            </g>
                            <!---->
                            <!---->
                            <!---->
                            <!---->
                            <!---->
                            <!---->
                            <!---->
                        </g>
                    </g>
                    <!---->
                </g>
            </g>
        </g>
    </g>
</svg>