<?xml version="1.0" standalone="no"?>
<!DOCTYPE svg PUBLIC "-//W3C//DTD SVG 1.1//EN" "http://www.w3.org/Graphics/SVG/1.1/DTD/svg11.dtd"><svg t="1644807044523"
    class="icon" viewBox="0 0 1398 1024" version="1.1" xmlns="http://www.w3.org/2000/svg" p-id="3265" width="43.6875"
    height="32" xmlns:xlink="http://www.w3.org/1999/xlink">
    <path
        d="M699.41688 0C316.235294 0 0 435.069054 0 512c0 97.227621 322.618926 512 699.41688 512s699.253197-390.383632 699.253197-512C1398.670077 435.069054 1082.434783 0 699.41688 0z m559.959079 462.567775a101.483376 101.483376 0 0 1 0 112.450128A817.104859 817.104859 0 0 1 1113.043478 740.664962c-76.112532 66.455243-230.956522 178.086957-414.28133 178.086956-168.59335 0-315.253197-98.209719-409.207161-180.051151a891.41688 891.41688 0 0 1-152.225064-171.539642 93.462916 93.462916 0 0 1 1.14578-104.429667A991.754476 991.754476 0 0 1 294.629156 288.900256c92.644501-83.805627 238.813299-183.488491 404.787724-183.488491s311.97954 99.682864 405.769821 183.324808a995.191816 995.191816 0 0 1 154.189258 173.831202z"
        fill="#242424" p-id="3266"></path>
    <path
        d="M699.41688 232.757033a279.242967 279.242967 0 1 0 279.242967 279.242967 279.242967 279.242967 0 0 0-279.242967-279.242967zM624.941176 505.780051a80.859335 80.859335 0 1 1 80.859336-80.204603 80.859335 80.859335 0 0 1-80.859336 80.204603z"
        fill="#242424" p-id="3267"></path>
</svg>